<svg viewBox="0 0 24 24" fill="currentColor" xmlns="http://www.w3.org/2000/svg">
  <path d="M11.979 0C5.678 0 .511 4.86.022 11.037l6.432 2.658a3.387 3.387 0 0 1 1.912-.59c.064 0 .128.003.191.006l2.861-4.142V8.91a4.528 4.528 0 0 1 4.524-4.524c2.494 0 4.524 2.031 4.524 4.527s-2.03 4.525-4.524 4.525h-.105l-4.076 2.911c0 .052.004.105.004.159 0 1.875-1.515 3.396-3.39 3.396-1.635 0-3.016-1.173-3.331-2.727L.436 15.27C1.862 20.307 6.486 24 11.979 24c6.627 0 12-5.373 12-12s-5.373-12-12-12zM7.54 18.21l-1.473-.61c.262.543.714.999 1.314 1.25a2.544 2.544 0 0 0 3.32-3.006 2.543 2.543 0 0 0-1.593-1.598 2.518 2.518 0 0 0-1.82.026l1.523.63a1.871 1.871 0 0 1-.636 3.618 1.873 1.873 0 0 1-.635-.31zm8.9-6.918a3.02 3.02 0 0 0 3.016-3.016 3.023 3.023 0 0 0-3.016-3.016 3.023 3.023 0 0 0-3.016 3.016 3.02 3.02 0 0 0 3.016 3.016zm-.002-5.277a2.263 2.263 0 0 1 0 4.524 2.263 2.263 0 0 1 0-4.524z"/>
</svg>
