<svg viewBox="0 0 24 24" fill="currentColor" xmlns="http://www.w3.org/2000/svg">
  <path d="M4.102 21.033A11.947 11.947 0 0 0 12 24a11.96 11.96 0 0 0 7.902-2.967c1.877-1.912-4.316-8.709-7.902-11.417-3.582 2.708-9.779 9.505-7.898 11.417zm11.296-14.768s4.199 2.09 4.932 2.836c.55.645.793 1.453.793 2.269 0 2.657-1.873 6.558-3.29 8.631 4.858-2.583 5.908-10.655-.435-13.736zM8.601 6.265C5.147 7.918 3.04 14.405 3.04 17.37c0-.816.243-1.624.793-2.269.734-.746 4.932-2.836 4.932-2.836-3.16-3.076-5.663-4.313.164-6zm3.399-.375s.946-.243 0-2.727c0 0 2.573-.457 4.737 1.156 0 0-2.161 1.328-4.737 1.571zm-4.737-1.571C9.427 2.463 12 2.163 12 2.163c-.946 2.484 0 2.727 0 2.727-2.576-.243-4.737-1.571-4.737-1.571z"/>
</svg>
